<svg width="106" height="105" viewBox="0 0 106 105" fill="none" xmlns="http://www.w3.org/2000/svg">
<g clip-path="url(#clip0_1767_10076)">
<mask id="mask0_1767_10076" style="mask-type:alpha" maskUnits="userSpaceOnUse" x="0" y="0" width="106" height="105">
<rect x="0.862793" y="0.0517578" width="104.897" height="104.897" fill="url(#paint0_radial_1767_10076)"/>
</mask>
<g mask="url(#mask0_1767_10076)">
<rect x="10.9844" y="10.1734" width="14.1089" height="14.1089" stroke="#00A88F" stroke-width="0.61343"/>
<rect x="25.0933" y="10.1733" width="14.1089" height="14.1089" stroke="#00A88F" stroke-width="0.61343"/>
<rect x="39.2022" y="10.1733" width="14.1089" height="14.1089" stroke="#00A88F" stroke-width="0.61343"/>
<rect x="53.3111" y="10.1733" width="14.1089" height="14.1089" stroke="#00A88F" stroke-width="0.61343"/>
<rect x="67.42" y="10.1733" width="14.1089" height="14.1089" stroke="#00A88F" stroke-width="0.61343"/>
<rect x="81.5289" y="10.1733" width="14.1089" height="14.1089" stroke="#00A88F" stroke-width="0.61343"/>
<rect x="10.9844" y="24.2822" width="14.1089" height="14.1089" stroke="#00A88F" stroke-width="0.61343"/>
<rect x="25.0933" y="24.2821" width="14.1089" height="14.1089" stroke="#00A88F" stroke-width="0.61343"/>
<rect x="39.2022" y="24.2821" width="14.1089" height="14.1089" stroke="#00A88F" stroke-width="0.61343"/>
<rect x="53.3111" y="24.2821" width="14.1089" height="14.1089" stroke="#00A88F" stroke-width="0.61343"/>
<rect x="67.42" y="24.2821" width="14.1089" height="14.1089" stroke="#00A88F" stroke-width="0.61343"/>
<rect x="81.5289" y="24.2821" width="14.1089" height="14.1089" stroke="#00A88F" stroke-width="0.61343"/>
<rect x="10.9844" y="38.3911" width="14.1089" height="14.1089" stroke="#00A88F" stroke-width="0.61343"/>
<rect x="25.0933" y="38.3911" width="14.1089" height="14.1089" stroke="#00A88F" stroke-width="0.61343"/>
<rect x="39.2022" y="38.3911" width="14.1089" height="14.1089" stroke="#00A88F" stroke-width="0.61343"/>
<rect x="53.3111" y="38.3911" width="14.1089" height="14.1089" stroke="#00A88F" stroke-width="0.61343"/>
<rect x="67.42" y="38.3911" width="14.1089" height="14.1089" stroke="#00A88F" stroke-width="0.61343"/>
<rect x="81.5289" y="38.3911" width="14.1089" height="14.1089" stroke="#00A88F" stroke-width="0.61343"/>
<rect x="10.9844" y="52.5" width="14.1089" height="14.1089" stroke="#00A88F" stroke-width="0.61343"/>
<rect x="25.0933" y="52.5" width="14.1089" height="14.1089" stroke="#00A88F" stroke-width="0.61343"/>
<rect x="39.2022" y="52.5" width="14.1089" height="14.1089" stroke="#00A88F" stroke-width="0.61343"/>
<rect x="53.3111" y="52.5" width="14.1089" height="14.1089" stroke="#00A88F" stroke-width="0.61343"/>
<rect x="67.42" y="52.5" width="14.1089" height="14.1089" stroke="#00A88F" stroke-width="0.61343"/>
<rect x="81.5289" y="52.5" width="14.1089" height="14.1089" stroke="#00A88F" stroke-width="0.61343"/>
<rect x="10.9844" y="66.6089" width="14.1089" height="14.1089" stroke="#00A88F" stroke-width="0.61343"/>
<rect x="25.0933" y="66.6089" width="14.1089" height="14.1089" stroke="#00A88F" stroke-width="0.61343"/>
<rect x="39.2022" y="66.6089" width="14.1089" height="14.1089" stroke="#00A88F" stroke-width="0.61343"/>
<rect x="53.3111" y="66.6089" width="14.1089" height="14.1089" stroke="#00A88F" stroke-width="0.61343"/>
<rect x="67.42" y="66.6089" width="14.1089" height="14.1089" stroke="#00A88F" stroke-width="0.61343"/>
<rect x="81.5289" y="66.6089" width="14.1089" height="14.1089" stroke="#00A88F" stroke-width="0.61343"/>
<rect x="10.9844" y="80.7178" width="14.1089" height="14.1089" stroke="#00A88F" stroke-width="0.61343"/>
<rect x="25.0933" y="80.7177" width="14.1089" height="14.1089" stroke="#00A88F" stroke-width="0.61343"/>
<rect x="39.2022" y="80.7178" width="14.1089" height="14.1089" stroke="#00A88F" stroke-width="0.61343"/>
<rect x="53.3111" y="80.7177" width="14.1089" height="14.1089" stroke="#00A88F" stroke-width="0.61343"/>
<rect x="67.42" y="80.7177" width="14.1089" height="14.1089" stroke="#00A88F" stroke-width="0.61343"/>
<rect x="81.5289" y="80.7177" width="14.1089" height="14.1089" stroke="#00A88F" stroke-width="0.61343"/>
</g>
</g>
<g filter="url(#filter0_d_1767_10076)">
<path d="M53.9205 51.6749C52.66 51.6749 51.6343 52.6926 51.6343 53.9432C51.6343 55.1938 52.66 56.2115 53.9205 56.2115C55.181 56.2115 56.2067 55.1938 56.2067 53.9432C56.2067 52.6926 55.181 51.6749 53.9205 51.6749Z" fill="url(#paint1_linear_1767_10076)"/>
</g>
<g filter="url(#filter1_d_1767_10076)">
<path d="M59.5553 44.1899C59.5553 44.1899 59.5553 44.1899 59.5553 44.1899H60.8642C60.939 44.1899 60.9978 44.2539 60.9911 44.3284C60.9717 44.5411 60.9508 44.7276 60.932 44.8395C60.9248 44.8825 60.9087 44.9232 60.8951 44.9646C60.8374 45.1406 60.879 45.34 61.016 45.4795C61.1164 45.5812 61.2502 45.6335 61.3843 45.6335C61.4949 45.6335 61.6054 45.5985 61.6985 45.5268L63.1693 44.4014C63.3469 44.2656 63.5648 44.1931 63.7884 44.1957L68.2368 44.2464C68.3798 44.2486 68.5066 44.1948 68.6045 44.0991C68.7022 44.0031 68.757 43.8725 68.757 43.7361L68.7567 38.9164C68.7567 38.6345 68.5262 38.4061 68.2423 38.4061H59.5554C59.2713 38.4061 59.041 38.6345 59.041 38.9164V43.6796C59.041 43.9611 59.2712 44.1898 59.5553 44.1899C59.5553 44.1899 59.5553 44.1899 59.5553 44.1899Z" fill="url(#paint2_linear_1767_10076)"/>
</g>
<g filter="url(#filter2_d_1767_10076)">
<path d="M39.8362 51.9836C40.9157 51.9836 41.7941 51.1121 41.7941 50.041C41.7941 48.97 40.9157 48.0984 39.8362 48.0984C38.7567 48.0984 37.8779 48.97 37.8779 50.041C37.8779 51.1119 38.757 51.9836 39.8362 51.9836Z" fill="url(#paint3_linear_1767_10076)"/>
</g>
<g filter="url(#filter3_d_1767_10076)">
<path d="M53.5921 38.3852C54.6716 38.3852 55.55 37.5137 55.55 36.4426C55.55 35.3715 54.6716 34.5 53.5921 34.5C52.5122 34.5 51.6338 35.3715 51.6338 36.4426C51.6338 37.5134 52.5122 38.3852 53.5921 38.3852Z" fill="url(#paint4_linear_1767_10076)"/>
</g>
<g filter="url(#filter4_d_1767_10076)">
<path d="M43.8249 42.2763C44.1783 42.5309 44.3262 42.985 44.1907 43.3989L44.0154 43.9344C43.9468 44.1446 44.0221 44.3749 44.2021 44.5049C44.3825 44.6349 44.6262 44.6349 44.8071 44.5049L45.2771 44.1661C45.6263 43.9143 46.0974 43.9143 46.4467 44.1661L46.9167 44.5049C47.007 44.5699 47.1129 44.6024 47.2192 44.6024C47.3254 44.6024 47.4313 44.5696 47.5217 44.5049C47.7017 44.3749 47.777 44.1446 47.7084 43.9344L47.533 43.3987C47.3975 42.9848 47.5454 42.5309 47.8986 42.2763L48.3603 41.9435C48.5403 41.8135 48.6162 41.5832 48.547 41.373C48.4782 41.1628 48.2807 41.0203 48.0578 41.0203H47.4786C47.0462 41.0203 46.6628 40.7424 46.5282 40.3315L46.3508 39.7898C46.2819 39.5795 46.0845 39.4371 45.8616 39.4371C45.6387 39.4371 45.4412 39.5792 45.3723 39.7898L45.1949 40.3315C45.0604 40.7424 44.6769 41.0203 44.2446 41.0203H43.6653C43.4428 41.0203 43.245 41.1625 43.1761 41.373C43.1072 41.5832 43.1828 41.8135 43.3628 41.9435L43.8249 42.2763Z" fill="url(#paint5_linear_1767_10076)"/>
</g>
<g filter="url(#filter5_d_1767_10076)">
<path d="M67.3674 48.845C67.2985 48.6348 67.1011 48.4923 66.8782 48.4923C66.6553 48.4923 66.4578 48.6345 66.3889 48.845L66.2115 49.3867C66.077 49.7977 65.6935 50.0756 65.2612 50.0756H64.6819C64.4594 50.0756 64.2616 50.2177 64.1927 50.4282C64.1238 50.6385 64.1994 50.8687 64.3794 50.9987L64.8411 51.3315C65.1943 51.5862 65.3422 52.0401 65.2067 52.4539L65.0313 52.9896C64.9627 53.1998 65.038 53.4301 65.2181 53.5601C65.3984 53.6901 65.6421 53.6901 65.8231 53.5601L66.2931 53.2213C66.6423 52.9696 67.1134 52.9696 67.4626 53.2213L67.9326 53.5601C68.0229 53.6251 68.1289 53.6576 68.2351 53.6576C68.3414 53.6576 68.4473 53.6248 68.5376 53.5601C68.7176 53.4301 68.793 53.1998 68.7244 52.9896L68.549 52.4539C68.4135 52.0401 68.5613 51.5862 68.9146 51.3315L69.3762 50.9987C69.5563 50.8687 69.6322 50.6385 69.563 50.4282C69.4941 50.218 69.2966 50.0756 69.0737 50.0756H68.4949C68.0623 50.0756 67.6788 49.7974 67.5444 49.3863L67.3674 48.845Z" fill="url(#paint6_linear_1767_10076)"/>
</g>
<g filter="url(#filter6_d_1767_10076)">
<path d="M62.4933 53.7442C62.4936 53.7442 62.4938 53.7441 62.4938 53.7438C62.4935 49.054 58.6478 45.2382 53.9205 45.2382C49.1934 45.2382 45.3472 49.0539 45.3472 53.7442C45.3472 55.6908 45.992 57.522 47.2121 59.0405C47.2768 59.1215 47.3497 59.1984 47.4231 59.2715C47.4332 59.2815 47.4438 59.2912 47.4549 59.3005C47.4778 59.32 49.7769 61.3003 49.734 65.5667V68.2035C49.734 68.3468 49.7947 68.4838 49.9018 68.5804L51.8736 70.3666C51.9679 70.4523 52.0919 70.5 52.2202 70.5H55.6209C55.7492 70.5 55.8725 70.4523 55.9678 70.3666L57.9395 68.5804C58.0461 68.4838 58.107 68.3468 58.107 68.2035V65.5615C58.0641 61.3318 60.3626 59.3202 60.3874 59.299C60.3968 59.291 60.4059 59.2827 60.4145 59.2742C60.5075 59.1822 60.5976 59.0799 60.6783 58.977C61.8653 57.4707 62.4925 55.6612 62.4929 53.7446C62.4929 53.7444 62.4931 53.7442 62.4933 53.7442ZM55.2553 56.9494C54.8039 57.1472 54.4354 57.5518 54.4354 58.0447V58.31C54.4354 58.5916 54.2049 58.8203 53.921 58.8203C53.6372 58.8203 53.4067 58.5916 53.4067 58.31V58.0455C53.4067 57.5526 53.0381 57.1479 52.5866 56.9501C51.8327 56.6197 51.2261 56.0185 50.8922 55.2708C50.6916 54.8216 50.2876 54.4542 49.7956 54.4542H49.5204C49.2363 54.4542 49.006 54.2254 49.006 53.9438C49.006 53.6619 49.2366 53.4335 49.5204 53.4335H49.7955C50.2875 53.4335 50.6916 53.0659 50.8921 52.6167C51.2259 51.869 51.8325 51.2677 52.5866 50.9373C53.0381 50.7394 53.4067 50.3348 53.4067 49.8418V49.5774C53.4067 49.2958 53.6372 49.0671 53.921 49.0671H53.9214C54.2052 49.0671 54.4354 49.2958 54.4354 49.5774V49.8417C54.4354 50.3346 54.8039 50.7392 55.2553 50.937C56.0092 51.2675 56.6158 51.8686 56.9496 52.6163C57.1502 53.0656 57.5543 53.4332 58.0463 53.4332H58.3217C58.6055 53.4332 58.8361 53.6619 58.8361 53.9435C58.8361 54.2254 58.6055 54.4539 58.3217 54.4539H58.0461C57.5542 54.4539 57.1502 54.8213 56.9495 55.2705C56.6157 56.0179 56.0093 56.619 55.2553 56.9494ZM57.0786 67.535C57.0787 67.8173 56.9593 68.0866 56.75 68.2761L55.7074 69.2205C55.5235 69.3871 55.2842 69.4794 55.036 69.4794H52.8055C52.5573 69.4794 52.318 69.3871 52.1341 69.2205L51.0917 68.2761C50.8825 68.0866 50.7631 67.8174 50.7631 67.535V67.0771C50.7631 66.5248 51.2108 66.0771 51.7631 66.0771H56.0786C56.6309 66.0771 57.0786 66.5248 57.0786 67.0771L57.0786 67.535Z" fill="url(#paint7_linear_1767_10076)"/>
</g>
<g filter="url(#filter7_d_1767_10076)">
<path d="M47.1836 64.5872C47.1723 64.4827 47.1285 64.3842 47.0587 64.3056L39.8327 56.144C39.7424 56.0423 39.6156 55.9803 39.4794 55.9715C39.3428 55.9621 39.2096 56.0079 39.1071 56.0972L36.8711 58.0462C36.7682 58.1358 36.7058 58.2616 36.6969 58.3968C36.688 58.5319 36.7336 58.665 36.8236 58.7662L44.0494 66.9277C44.1189 67.0067 44.2123 67.0626 44.3149 67.0869L46.8298 67.6902C46.8696 67.6996 46.9103 67.7044 46.9507 67.7044H46.9575C47.2416 67.7044 47.4718 67.476 47.4718 67.1941C47.4718 67.176 47.4709 67.1583 47.4691 67.1408C47.4632 67.0841 47.4498 67.0283 47.4436 66.9716L47.1836 64.5872ZM40.092 60.9115C39.7347 60.5079 39.7747 59.8905 40.181 59.5363C40.5829 59.1861 41.1921 59.2255 41.5455 59.6247L45.2108 63.7647C45.5681 64.1682 45.5282 64.7855 45.1219 65.1396C44.7201 65.4899 44.1109 65.4505 43.7575 65.0514L40.092 60.9115Z" fill="url(#paint8_linear_1767_10076)"/>
</g>
<g filter="url(#filter8_d_1767_10076)">
<path d="M69.7292 61.7052L65.7378 58.6006C65.6304 58.5167 65.4941 58.4785 65.3588 58.4955C65.2235 58.5119 65.1004 58.5805 65.0159 58.6875L64.2175 59.6975C64.1962 59.7246 64.1635 59.7378 64.1292 59.7412C63.9933 59.7577 63.8699 59.8263 63.786 59.9332L62.1862 61.9585C62.0079 62.1843 61.9883 62.5198 61.81 62.7455L60.6955 64.1557C60.5204 64.3775 60.5593 64.6983 60.7831 64.8723L64.7744 67.9769C64.8656 68.0477 64.9774 68.0853 65.0919 68.0853C65.1127 68.0853 65.1329 68.0844 65.1537 68.0817C65.2897 68.0653 65.4131 67.9966 65.497 67.8897L66.8567 66.1687C66.8789 66.1406 66.913 66.1254 66.9485 66.1208C67.0845 66.1044 67.2079 66.0358 67.2918 65.9288L68.8918 63.9039C69.0699 63.6779 69.0897 63.3426 69.2681 63.1169L69.8177 62.4215C69.9922 62.1997 69.953 61.8789 69.7292 61.7052ZM67.1257 64.1728C66.8605 64.5085 66.3742 64.5674 66.0366 64.3048L64.0843 62.7862C63.7431 62.5207 63.6835 62.0282 63.9515 61.689C64.2166 61.3534 64.7028 61.2945 65.0403 61.5571L66.9927 63.0756C67.3339 63.341 67.3936 63.8336 67.1257 64.1728Z" fill="url(#paint9_linear_1767_10076)"/>
</g>
<defs>
<filter id="filter0_d_1767_10076" x="47.4436" y="49.5796" width="12.9535" height="12.9178" filterUnits="userSpaceOnUse" color-interpolation-filters="sRGB">
<feFlood flood-opacity="0" result="BackgroundImageFix"/>
<feColorMatrix in="SourceAlpha" type="matrix" values="0 0 0 0 0 0 0 0 0 0 0 0 0 0 0 0 0 0 127 0" result="hardAlpha"/>
<feOffset dy="2.09532"/>
<feGaussianBlur stdDeviation="2.09532"/>
<feComposite in2="hardAlpha" operator="out"/>
<feColorMatrix type="matrix" values="0 0 0 0 0 0 0 0 0 0.4 0 0 0 0 0.340476 0 0 0 0.2 0"/>
<feBlend mode="normal" in2="BackgroundImageFix" result="effect1_dropShadow_1767_10076"/>
<feBlend mode="normal" in="SourceGraphic" in2="effect1_dropShadow_1767_10076" result="shape"/>
</filter>
<filter id="filter1_d_1767_10076" x="54.8504" y="36.3108" width="18.0971" height="15.6087" filterUnits="userSpaceOnUse" color-interpolation-filters="sRGB">
<feFlood flood-opacity="0" result="BackgroundImageFix"/>
<feColorMatrix in="SourceAlpha" type="matrix" values="0 0 0 0 0 0 0 0 0 0 0 0 0 0 0 0 0 0 127 0" result="hardAlpha"/>
<feOffset dy="2.09532"/>
<feGaussianBlur stdDeviation="2.09532"/>
<feComposite in2="hardAlpha" operator="out"/>
<feColorMatrix type="matrix" values="0 0 0 0 0 0 0 0 0 0.4 0 0 0 0 0.340476 0 0 0 0.2 0"/>
<feBlend mode="normal" in2="BackgroundImageFix" result="effect1_dropShadow_1767_10076"/>
<feBlend mode="normal" in="SourceGraphic" in2="effect1_dropShadow_1767_10076" result="shape"/>
</filter>
<filter id="filter2_d_1767_10076" x="33.6873" y="46.0031" width="12.2973" height="12.2665" filterUnits="userSpaceOnUse" color-interpolation-filters="sRGB">
<feFlood flood-opacity="0" result="BackgroundImageFix"/>
<feColorMatrix in="SourceAlpha" type="matrix" values="0 0 0 0 0 0 0 0 0 0 0 0 0 0 0 0 0 0 127 0" result="hardAlpha"/>
<feOffset dy="2.09532"/>
<feGaussianBlur stdDeviation="2.09532"/>
<feComposite in2="hardAlpha" operator="out"/>
<feColorMatrix type="matrix" values="0 0 0 0 0 0 0 0 0 0.4 0 0 0 0 0.340476 0 0 0 0.2 0"/>
<feBlend mode="normal" in2="BackgroundImageFix" result="effect1_dropShadow_1767_10076"/>
<feBlend mode="normal" in="SourceGraphic" in2="effect1_dropShadow_1767_10076" result="shape"/>
</filter>
<filter id="filter3_d_1767_10076" x="47.4432" y="32.4047" width="12.2973" height="12.2665" filterUnits="userSpaceOnUse" color-interpolation-filters="sRGB">
<feFlood flood-opacity="0" result="BackgroundImageFix"/>
<feColorMatrix in="SourceAlpha" type="matrix" values="0 0 0 0 0 0 0 0 0 0 0 0 0 0 0 0 0 0 127 0" result="hardAlpha"/>
<feOffset dy="2.09532"/>
<feGaussianBlur stdDeviation="2.09532"/>
<feComposite in2="hardAlpha" operator="out"/>
<feColorMatrix type="matrix" values="0 0 0 0 0 0 0 0 0 0.4 0 0 0 0 0.340476 0 0 0 0.2 0"/>
<feBlend mode="normal" in2="BackgroundImageFix" result="effect1_dropShadow_1767_10076"/>
<feBlend mode="normal" in="SourceGraphic" in2="effect1_dropShadow_1767_10076" result="shape"/>
</filter>
<filter id="filter4_d_1767_10076" x="38.9602" y="37.3418" width="13.8027" height="13.5466" filterUnits="userSpaceOnUse" color-interpolation-filters="sRGB">
<feFlood flood-opacity="0" result="BackgroundImageFix"/>
<feColorMatrix in="SourceAlpha" type="matrix" values="0 0 0 0 0 0 0 0 0 0 0 0 0 0 0 0 0 0 127 0" result="hardAlpha"/>
<feOffset dy="2.09532"/>
<feGaussianBlur stdDeviation="2.09532"/>
<feComposite in2="hardAlpha" operator="out"/>
<feColorMatrix type="matrix" values="0 0 0 0 0 0 0 0 0 0.4 0 0 0 0 0.340476 0 0 0 0.2 0"/>
<feBlend mode="normal" in2="BackgroundImageFix" result="effect1_dropShadow_1767_10076"/>
<feBlend mode="normal" in="SourceGraphic" in2="effect1_dropShadow_1767_10076" result="shape"/>
</filter>
<filter id="filter5_d_1767_10076" x="59.9768" y="46.397" width="13.8022" height="13.5466" filterUnits="userSpaceOnUse" color-interpolation-filters="sRGB">
<feFlood flood-opacity="0" result="BackgroundImageFix"/>
<feColorMatrix in="SourceAlpha" type="matrix" values="0 0 0 0 0 0 0 0 0 0 0 0 0 0 0 0 0 0 127 0" result="hardAlpha"/>
<feOffset dy="2.09532"/>
<feGaussianBlur stdDeviation="2.09532"/>
<feComposite in2="hardAlpha" operator="out"/>
<feColorMatrix type="matrix" values="0 0 0 0 0 0 0 0 0 0.4 0 0 0 0 0.340476 0 0 0 0.2 0"/>
<feBlend mode="normal" in2="BackgroundImageFix" result="effect1_dropShadow_1767_10076"/>
<feBlend mode="normal" in="SourceGraphic" in2="effect1_dropShadow_1767_10076" result="shape"/>
</filter>
<filter id="filter6_d_1767_10076" x="41.1565" y="43.1429" width="25.5277" height="33.643" filterUnits="userSpaceOnUse" color-interpolation-filters="sRGB">
<feFlood flood-opacity="0" result="BackgroundImageFix"/>
<feColorMatrix in="SourceAlpha" type="matrix" values="0 0 0 0 0 0 0 0 0 0 0 0 0 0 0 0 0 0 127 0" result="hardAlpha"/>
<feOffset dy="2.09532"/>
<feGaussianBlur stdDeviation="2.09532"/>
<feComposite in2="hardAlpha" operator="out"/>
<feColorMatrix type="matrix" values="0 0 0 0 0 0 0 0 0 0.4 0 0 0 0 0.340476 0 0 0 0.2 0"/>
<feBlend mode="normal" in2="BackgroundImageFix" result="effect1_dropShadow_1767_10076"/>
<feBlend mode="normal" in="SourceGraphic" in2="effect1_dropShadow_1767_10076" result="shape"/>
</filter>
<filter id="filter7_d_1767_10076" x="32.5052" y="53.875" width="19.1571" height="20.1154" filterUnits="userSpaceOnUse" color-interpolation-filters="sRGB">
<feFlood flood-opacity="0" result="BackgroundImageFix"/>
<feColorMatrix in="SourceAlpha" type="matrix" values="0 0 0 0 0 0 0 0 0 0 0 0 0 0 0 0 0 0 127 0" result="hardAlpha"/>
<feOffset dy="2.09532"/>
<feGaussianBlur stdDeviation="2.09532"/>
<feComposite in2="hardAlpha" operator="out"/>
<feColorMatrix type="matrix" values="0 0 0 0 0 0 0 0 0 0.4 0 0 0 0 0.340476 0 0 0 0.2 0"/>
<feBlend mode="normal" in2="BackgroundImageFix" result="effect1_dropShadow_1767_10076"/>
<feBlend mode="normal" in="SourceGraphic" in2="effect1_dropShadow_1767_10076" result="shape"/>
</filter>
<filter id="filter8_d_1767_10076" x="56.3953" y="56.3962" width="17.7221" height="17.9751" filterUnits="userSpaceOnUse" color-interpolation-filters="sRGB">
<feFlood flood-opacity="0" result="BackgroundImageFix"/>
<feColorMatrix in="SourceAlpha" type="matrix" values="0 0 0 0 0 0 0 0 0 0 0 0 0 0 0 0 0 0 127 0" result="hardAlpha"/>
<feOffset dy="2.09532"/>
<feGaussianBlur stdDeviation="2.09532"/>
<feComposite in2="hardAlpha" operator="out"/>
<feColorMatrix type="matrix" values="0 0 0 0 0 0 0 0 0 0.4 0 0 0 0 0.340476 0 0 0 0.2 0"/>
<feBlend mode="normal" in2="BackgroundImageFix" result="effect1_dropShadow_1767_10076"/>
<feBlend mode="normal" in="SourceGraphic" in2="effect1_dropShadow_1767_10076" result="shape"/>
</filter>
<radialGradient id="paint0_radial_1767_10076" cx="0" cy="0" r="1" gradientUnits="userSpaceOnUse" gradientTransform="translate(53.3111 52.5) rotate(90.3769) scale(46.6217)">
<stop stop-color="#D9D9D9"/>
<stop offset="1" stop-color="#D9D9D9" stop-opacity="0"/>
</radialGradient>
<linearGradient id="paint1_linear_1767_10076" x1="54.046" y1="51.6749" x2="54.3656" y2="58.0872" gradientUnits="userSpaceOnUse">
<stop stop-color="#00A88F"/>
<stop offset="1" stop-color="#006B5A"/>
</linearGradient>
<linearGradient id="paint2_linear_1767_10076" x1="64.1656" y1="38.4061" x2="64.5478" y2="48.6328" gradientUnits="userSpaceOnUse">
<stop stop-color="#00A88F"/>
<stop offset="1" stop-color="#006B5A"/>
</linearGradient>
<linearGradient id="paint3_linear_1767_10076" x1="39.9435" y1="48.0984" x2="40.2172" y2="53.59" gradientUnits="userSpaceOnUse">
<stop stop-color="#00A88F"/>
<stop offset="1" stop-color="#006B5A"/>
</linearGradient>
<linearGradient id="paint4_linear_1767_10076" x1="53.6994" y1="34.5" x2="53.9731" y2="39.9916" gradientUnits="userSpaceOnUse">
<stop stop-color="#00A88F"/>
<stop offset="1" stop-color="#006B5A"/>
</linearGradient>
<linearGradient id="paint5_linear_1767_10076" x1="46.0104" y1="39.4371" x2="46.36" y2="46.7395" gradientUnits="userSpaceOnUse">
<stop stop-color="#00A88F"/>
<stop offset="1" stop-color="#006B5A"/>
</linearGradient>
<linearGradient id="paint6_linear_1767_10076" x1="67.0266" y1="48.4923" x2="67.3763" y2="55.7947" gradientUnits="userSpaceOnUse">
<stop stop-color="#00A88F"/>
<stop offset="1" stop-color="#006B5A"/>
</linearGradient>
<linearGradient id="paint7_linear_1767_10076" x1="54.3909" y1="45.2382" x2="57.0263" y2="80.8384" gradientUnits="userSpaceOnUse">
<stop stop-color="#00A88F"/>
<stop offset="1" stop-color="#006B5A"/>
</linearGradient>
<linearGradient id="paint8_linear_1767_10076" x1="42.3795" y1="55.9703" x2="43.2865" y2="72.5476" gradientUnits="userSpaceOnUse">
<stop stop-color="#00A88F"/>
<stop offset="1" stop-color="#006B5A"/>
</linearGradient>
<linearGradient id="paint9_linear_1767_10076" x1="65.5126" y1="58.4915" x2="66.2123" y2="72.0496" gradientUnits="userSpaceOnUse">
<stop stop-color="#00A88F"/>
<stop offset="1" stop-color="#006B5A"/>
</linearGradient>
<clipPath id="clip0_1767_10076">
<rect width="104.897" height="104.897" fill="white" transform="translate(0.862793 0.0517578)"/>
</clipPath>
</defs>
</svg>
