<svg width="303" height="303" viewBox="0 0 303 303" fill="none" xmlns="http://www.w3.org/2000/svg">
<path d="M153.928 0.547409C121.357 -0.013594 89.4759 9.9334 63.0263 28.9086C62.6231 29.198 62.2809 29.5638 62.0194 29.9851C61.7578 30.4065 61.582 30.8751 61.502 31.3642C61.4219 31.8534 61.4392 32.3535 61.5528 32.836C61.6664 33.3185 61.8741 33.7739 62.1641 34.1763C62.4541 34.5787 62.8207 34.9201 63.2429 35.1811C63.6651 35.4421 64.1347 35.6176 64.6249 35.6974C65.1151 35.7773 65.6162 35.7601 66.0997 35.6467C66.5832 35.5333 67.0396 35.326 67.4428 35.0366C84.1434 23.0548 103.227 14.7911 123.404 10.8044C143.581 6.81774 164.381 7.20093 184.397 11.9281C184.884 12.0529 185.391 12.0795 185.888 12.0065C186.385 11.9334 186.863 11.7622 187.293 11.5027C187.723 11.2432 188.098 10.9007 188.394 10.4953C188.69 10.0898 188.902 9.62951 189.017 9.14131C189.133 8.65312 189.15 8.1468 189.067 7.652C188.984 7.15719 188.803 6.68382 188.535 6.25957C188.267 5.83532 187.917 5.46871 187.505 5.18118C187.093 4.89365 186.628 4.69096 186.136 4.58499C175.574 2.08895 164.78 0.735291 153.928 0.547409ZM206.835 11.3545C205.951 11.3496 205.094 11.6537 204.411 12.2141C203.729 12.7744 203.265 13.5555 203.099 14.4219C202.934 15.2882 203.078 16.1849 203.506 16.9564C203.934 17.7278 204.62 18.3252 205.443 18.6448C234.371 30.3835 258.678 51.2087 274.685 77.9671C290.691 104.725 297.525 135.96 294.151 166.941C294.098 167.434 294.142 167.933 294.281 168.409C294.421 168.885 294.653 169.329 294.965 169.715C295.276 170.102 295.661 170.423 296.097 170.661C296.533 170.899 297.011 171.049 297.505 171.103C297.999 171.157 298.499 171.112 298.976 170.973C299.453 170.834 299.898 170.602 300.285 170.292C300.673 169.981 300.995 169.597 301.233 169.162C301.472 168.727 301.622 168.249 301.676 167.756C305.217 135.146 298.019 102.273 281.17 74.1097C264.321 45.9464 238.739 24.0256 208.294 11.664C207.833 11.4651 207.337 11.3599 206.835 11.3545ZM149.882 22.3314C149.882 22.3335 149.88 22.3352 149.878 22.3352C146.967 22.3354 144.057 22.4938 141.147 22.7352C140.637 22.7528 140.135 22.8733 139.673 23.0894C139.211 23.3055 138.797 23.6128 138.457 23.9927C138.117 24.3726 137.858 24.8173 137.695 25.2999C137.532 25.7826 137.468 26.2932 137.508 26.801C137.548 27.3088 137.69 27.8034 137.927 28.2548C138.163 28.7062 138.489 29.1051 138.884 29.4276C139.279 29.75 139.736 29.9893 140.226 30.131C140.716 30.2726 141.23 30.3138 141.737 30.2519C163.683 28.5237 185.675 32.7726 205.398 42.5307C205.843 42.7507 206.328 42.881 206.824 42.9142C207.32 42.9473 207.817 42.8827 208.288 42.724C208.759 42.5653 209.194 42.3155 209.568 41.9891C209.942 41.6626 210.248 41.2658 210.469 40.8213C210.689 40.3768 210.82 39.8933 210.853 39.3985C210.886 38.9036 210.821 38.4071 210.662 37.9372C210.503 37.4673 210.253 37.0333 209.926 36.6599C209.599 36.2866 209.201 35.9811 208.756 35.7611C190.468 26.713 170.296 22.1099 149.885 22.3277C149.883 22.3277 149.882 22.3294 149.882 22.3314ZM118.815 26.5917C118.474 26.5966 118.136 26.6473 117.809 26.7426C90.3003 34.1065 65.9937 50.3199 48.6568 72.87C31.3199 95.4201 21.9209 123.047 21.9165 151.47C21.9165 167.416 23.2173 174.465 21.5913 188.834C20.6444 195.735 17.6195 202.185 12.9171 207.332C12.2412 208.072 11.8878 209.051 11.9346 210.051C11.9814 211.052 12.4246 211.993 13.1667 212.667C13.9088 213.342 14.889 213.695 15.8917 213.648C16.8944 213.601 17.8375 213.159 18.5134 212.418C24.2566 206.133 27.9467 198.252 29.0933 189.823C29.0937 189.793 29.0937 189.763 29.0933 189.732C30.8176 174.609 29.4639 167.009 29.4639 151.47C29.46 124.703 38.3085 98.6841 54.6365 77.4488C70.9644 56.2135 93.8589 40.9496 119.768 34.0253C120.664 33.8013 121.446 33.2578 121.968 32.4973C122.49 31.7369 122.715 30.8121 122.601 29.8975C122.486 28.9829 122.04 28.1418 121.347 27.5328C120.654 26.9237 119.761 26.589 118.838 26.5917H118.822H118.815ZM46.956 43.6023C45.9744 43.6283 45.0414 44.0343 44.3545 44.7344C27.1385 61.9196 14.3342 82.9984 7.02965 106.179C-0.274939 129.361 -1.86393 153.959 2.3977 177.884C2.47286 178.383 2.64745 178.861 2.91113 179.291C3.17481 179.722 3.52225 180.095 3.9329 180.389C4.34355 180.683 4.80908 180.892 5.30199 181.003C5.7949 181.114 6.30517 181.126 6.80266 181.037C7.30015 180.948 7.77474 180.761 8.19841 180.486C8.62207 180.211 8.98621 179.854 9.26929 179.436C9.55237 179.019 9.74866 178.548 9.84655 178.054C9.94443 177.559 9.94194 177.049 9.8392 176.556C5.79028 153.827 7.29996 130.46 14.2399 108.439C21.1799 86.4175 33.3449 66.394 49.7011 50.07C50.2438 49.5395 50.6137 48.8582 50.7628 48.1149C50.9118 47.3716 50.8331 46.6008 50.5368 45.9027C50.2406 45.2047 49.7405 44.6119 49.1018 44.2016C48.4631 43.7913 47.7153 43.5825 46.956 43.6023ZM150.509 44.1155C150.505 44.1155 150.502 44.1189 150.502 44.1231C150.502 44.1273 150.498 44.1306 150.494 44.1307C131.757 44.2783 113.383 49.3059 97.1914 58.716C80.9971 68.1273 67.5466 81.596 58.1711 97.7889C57.8976 98.2184 57.7138 98.6987 57.6311 99.2008C57.5483 99.703 57.5682 100.217 57.6895 100.711C57.8108 101.205 58.0311 101.67 58.3371 102.077C58.643 102.484 59.0284 102.825 59.4699 103.08C59.9114 103.335 60.4 103.498 60.9062 103.559C61.4125 103.621 61.9259 103.579 62.4157 103.437C62.9055 103.295 63.3615 103.056 63.7562 102.734C64.151 102.412 64.4763 102.013 64.7127 101.562C75.5063 82.9007 92.0644 68.228 111.91 59.7392C131.755 51.2504 153.822 49.4018 174.808 54.4698C195.794 59.527 214.575 71.2296 228.341 87.8266C242.107 104.424 250.117 125.023 251.174 146.542C251.199 147.037 251.321 147.523 251.534 147.971C251.747 148.42 252.046 148.822 252.415 149.155C252.784 149.488 253.214 149.745 253.683 149.911C254.151 150.078 254.647 150.151 255.144 150.126C255.641 150.102 256.127 149.98 256.577 149.767C257.026 149.555 257.429 149.256 257.762 148.888C258.096 148.52 258.354 148.09 258.521 147.623C258.688 147.155 258.761 146.66 258.736 146.164C257.362 118.509 245.335 92.4529 225.166 73.4371C205 54.423 178.252 43.918 150.509 44.1155ZM226.407 47.3154C225.62 47.3448 224.862 47.6186 224.238 48.0986C223.615 48.5785 223.157 49.2407 222.929 49.9927C222.701 50.7448 222.714 51.5491 222.966 52.2935C223.218 53.0379 223.696 53.6853 224.334 54.1453C244.58 69.2703 259.608 90.3074 267.335 114.339C267.466 114.834 267.697 115.296 268.014 115.699C268.33 116.102 268.725 116.436 269.175 116.681C269.625 116.927 270.12 117.078 270.63 117.127C271.141 117.176 271.656 117.12 272.144 116.964C272.632 116.808 273.084 116.554 273.47 116.218C273.857 115.882 274.172 115.472 274.395 115.011C274.618 114.55 274.744 114.049 274.767 113.538C274.79 113.026 274.708 112.516 274.527 112.037C266.326 86.5133 250.37 64.1681 228.872 48.1003C228.168 47.5574 227.295 47.2795 226.407 47.3154ZM151.311 65.9335C138.605 65.936 126.058 68.7572 114.579 74.1929C103.1 79.6287 92.9754 87.543 84.9378 97.3633C76.9002 107.184 71.1506 118.664 68.1053 130.974C65.0599 143.284 64.7949 156.116 67.3293 168.541C67.4286 169.026 67.6228 169.488 67.9008 169.899C68.1788 170.309 68.5351 170.661 68.9494 170.935C69.3638 171.208 69.828 171.397 70.3156 171.491C70.8031 171.586 71.3046 171.583 71.7912 171.484C72.2778 171.385 72.7401 171.191 73.1517 170.914C73.5633 170.636 73.9161 170.281 74.19 169.867C74.4638 169.454 74.6534 168.991 74.7479 168.504C74.8424 168.018 74.8399 167.517 74.7406 167.031C72.4288 155.703 72.6699 144.004 75.4462 132.781C78.2226 121.557 83.4648 111.09 90.7934 102.137C98.1221 93.1834 107.354 85.9683 117.82 81.0135C128.287 76.0587 139.726 73.4882 151.311 73.488C152.314 73.488 153.276 73.0904 153.985 72.3828C154.694 71.6751 155.092 70.7153 155.092 69.7145C155.092 68.7137 154.694 67.754 153.985 67.0463C153.276 66.3386 152.314 65.9335 151.311 65.9335ZM176.149 69.7375C176.145 69.7374 176.143 69.7419 176.146 69.7446C176.149 69.7473 176.147 69.7519 176.143 69.7517C176.021 69.746 175.898 69.7461 175.776 69.7523C174.893 69.8164 174.061 70.1875 173.424 70.8009C172.787 71.4143 172.386 72.2311 172.291 73.1091C172.196 73.9872 172.412 74.8708 172.902 75.6061C173.392 76.3413 174.126 76.8817 174.974 77.1331C190.786 82.1434 204.588 92.0473 214.382 105.41C224.176 118.772 229.452 134.899 229.447 151.455C229.446 151.48 229.446 151.505 229.447 151.53C229.87 171.711 229.795 192.713 227.76 210.901C227.649 211.897 227.939 212.896 228.565 213.679C229.192 214.462 230.105 214.964 231.103 215.075C232.101 215.186 233.102 214.897 233.886 214.271C234.67 213.646 235.174 212.735 235.285 211.739C237.38 192.963 237.425 171.726 236.994 151.44C236.994 114.203 212.809 81.2235 177.25 69.9409C176.895 69.819 176.524 69.7504 176.149 69.7375ZM147.651 87.8346C139.242 88.318 131.012 90.4571 123.436 94.1287C122.533 94.565 121.841 95.3413 121.512 96.2867C121.183 97.2321 121.244 98.2693 121.681 99.17C122.118 100.071 122.896 100.761 123.844 101.09C124.791 101.418 125.83 101.357 126.733 100.921C135.631 96.6125 145.509 94.7194 155.373 95.4322C165.237 96.145 174.739 99.4385 182.922 104.981C183.333 105.276 183.798 105.485 184.291 105.597C184.785 105.709 185.295 105.72 185.793 105.632C186.291 105.543 186.766 105.356 187.19 105.081C187.614 104.806 187.978 104.449 188.261 104.031C188.545 103.613 188.741 103.143 188.839 102.648C188.937 102.152 188.934 101.643 188.831 101.149C188.728 100.655 188.527 100.186 188.239 99.7713C187.952 99.3562 187.584 99.0029 187.157 98.7323C175.548 90.8621 161.662 87.0318 147.651 87.8346ZM108.757 105.26C107.773 105.29 106.84 105.702 106.155 106.407C94.1777 118.358 87.4477 134.567 87.4456 151.47V176.488C87.4456 208.449 74.1961 238.017 52.0985 259.654C51.7124 259.993 51.3998 260.407 51.1795 260.871C50.9593 261.334 50.8361 261.838 50.8175 262.351C50.7989 262.864 50.8853 263.375 51.0714 263.853C51.2575 264.331 51.5394 264.767 51.8999 265.133C52.2604 265.499 52.6918 265.787 53.1679 265.981C53.644 266.175 54.1546 266.27 54.6687 266.26C55.1828 266.25 55.6894 266.136 56.1577 265.924C56.626 265.712 57.046 265.407 57.3922 265.028C80.8662 242.047 95.0081 210.532 95.0081 176.488V151.47C95.0081 136.565 100.945 122.286 111.502 111.743C112.05 111.214 112.425 110.531 112.577 109.785C112.729 109.039 112.652 108.264 112.355 107.563C112.058 106.862 111.555 106.267 110.913 105.856C110.271 105.445 109.519 105.237 108.757 105.26ZM151.311 109.6C151.311 109.587 151.301 109.577 151.288 109.577C150.885 109.578 150.485 109.643 150.103 109.769C149.97 109.813 149.833 109.844 149.693 109.849C139.257 110.274 129.269 114.367 121.855 121.796C114.039 129.632 109.652 140.24 109.657 151.296L109.543 167.748C109.538 168.244 109.631 168.736 109.817 169.195C110.002 169.655 110.276 170.074 110.624 170.428C110.972 170.782 111.386 171.064 111.842 171.258C112.299 171.452 112.79 171.555 113.287 171.56C113.783 171.565 114.276 171.472 114.737 171.287C115.197 171.102 115.617 170.828 115.971 170.481C116.326 170.134 116.609 169.721 116.803 169.265C116.998 168.809 117.101 168.319 117.106 167.824L117.219 151.349C117.218 142.289 120.813 133.598 127.217 127.176C130.375 124.007 134.129 121.492 138.264 119.775C142.398 118.057 146.832 117.172 151.311 117.169C155.836 117.162 160.318 118.047 164.499 119.772C168.681 121.497 172.48 124.029 175.679 127.223C178.878 130.417 181.414 134.209 183.141 138.383C184.868 142.557 185.752 147.03 185.743 151.545V162.451C185.743 182.333 183.677 202.161 179.579 221.618C179.477 222.103 179.471 222.604 179.562 223.091C179.653 223.579 179.839 224.043 180.11 224.459C180.381 224.875 180.732 225.233 181.142 225.513C181.551 225.794 182.012 225.991 182.499 226.093C182.985 226.196 183.486 226.202 183.975 226.111C184.463 226.02 184.929 225.834 185.345 225.564C186.186 225.017 186.776 224.16 186.983 223.18C191.187 203.209 193.306 182.857 193.305 162.451V151.545C193.305 129 175.287 110.804 152.912 109.91C152.769 109.904 152.628 109.872 152.492 109.826C152.119 109.698 151.728 109.63 151.333 109.623C151.321 109.623 151.311 109.612 151.311 109.6ZM201.322 114.486C201.322 114.484 201.32 114.483 201.318 114.483C200.629 114.483 199.954 114.67 199.364 115.025C198.774 115.381 198.292 115.891 197.971 116.501C197.65 117.11 197.502 117.796 197.544 118.483C197.585 119.17 197.814 119.833 198.206 120.399C205.279 131.028 208.514 143.743 207.379 156.451C207.289 157.448 207.599 158.439 208.242 159.208C208.884 159.976 209.806 160.459 210.805 160.549C211.804 160.639 212.798 160.329 213.568 159.688C214.338 159.047 214.821 158.127 214.911 157.13C216.202 142.712 212.534 128.286 204.513 116.226C204.17 115.692 203.698 115.254 203.14 114.95C202.583 114.648 201.959 114.489 201.325 114.49C201.323 114.49 201.322 114.488 201.322 114.486ZM50.8885 120.845C50.0808 120.884 49.3071 121.181 48.6809 121.692C48.0548 122.203 47.6093 122.9 47.4097 123.682C44.5056 134.523 43.3216 145.75 43.9007 156.956C44.2788 168.873 43.6133 173.152 43.7495 189.793C43.7492 189.818 43.7492 189.843 43.7495 189.868C44.1049 204.072 36.5197 217.331 23.8979 224.463C23.0244 224.957 22.3831 225.776 22.1151 226.741C21.847 227.707 21.9742 228.738 22.4686 229.61C22.963 230.482 23.7841 231.122 24.7514 231.389C25.7186 231.657 26.7527 231.53 27.6262 231.037C42.6151 222.561 51.743 206.683 51.312 189.68C51.1834 173.28 51.8413 168.933 51.4481 156.647C51.4483 156.622 51.4483 156.597 51.4481 156.572C50.9145 146.16 52.022 135.729 54.7302 125.66C54.8993 125.08 54.9266 124.469 54.8099 123.877C54.6932 123.284 54.4359 122.729 54.0596 122.256C53.6833 121.784 53.1989 121.409 52.6471 121.162C52.0953 120.915 51.4922 120.811 50.8885 120.845ZM151.303 131.342C151.306 131.34 151.304 131.335 151.3 131.335C145.96 131.356 140.844 133.483 137.069 137.253C133.291 141.026 131.163 146.137 131.149 151.47L130.922 172.118C130.018 192.485 126.276 212.627 119.806 231.965C119.618 232.441 119.529 232.951 119.544 233.463C119.56 233.975 119.68 234.478 119.897 234.942C120.114 235.406 120.423 235.821 120.806 236.162C121.189 236.503 121.637 236.763 122.124 236.925C122.61 237.088 123.125 237.15 123.636 237.108C124.148 237.065 124.645 236.92 125.098 236.679C125.551 236.439 125.951 236.109 126.272 235.71C126.593 235.311 126.83 234.851 126.967 234.357C133.664 214.357 137.538 193.524 138.477 172.458C138.478 172.407 138.478 172.357 138.477 172.307L138.697 151.485C138.697 144.497 144.293 138.897 151.296 138.897C152.953 138.891 154.596 139.212 156.128 139.843C157.66 140.474 159.052 141.401 160.223 142.571C161.395 143.742 162.322 145.132 162.952 146.662C163.583 148.192 163.903 149.831 163.895 151.485C163.895 152.486 164.293 153.445 165.002 154.153C165.712 154.861 166.673 155.258 167.676 155.258C168.679 155.258 169.641 154.861 170.35 154.153C171.059 153.445 171.457 152.486 171.457 151.485C171.457 140.417 162.388 131.356 151.306 131.35C151.303 131.35 151.301 131.345 151.303 131.342ZM275.714 131.439C275.701 131.44 275.691 131.45 275.691 131.463C275.691 131.476 275.681 131.486 275.669 131.487C275.15 131.514 274.643 131.647 274.178 131.878C273.706 132.113 273.289 132.443 272.953 132.848C272.617 133.254 272.369 133.724 272.226 134.23C272.083 134.736 272.047 135.267 272.122 135.787C272.727 140.406 273.067 145.047 273.135 149.704V173.326C273.135 196.283 270.004 219.135 263.818 241.24C263.684 241.717 263.646 242.216 263.705 242.708C263.764 243.2 263.919 243.676 264.163 244.108C264.406 244.54 264.732 244.92 265.123 245.226C265.513 245.532 265.96 245.759 266.439 245.893C266.917 246.026 267.417 246.065 267.91 246.006C268.403 245.947 268.88 245.792 269.312 245.549C269.745 245.306 270.126 244.98 270.433 244.591C270.74 244.201 270.967 243.755 271.101 243.278C277.475 220.507 280.706 196.975 280.705 173.333V149.636C280.706 149.611 280.706 149.586 280.705 149.56C280.627 144.613 280.266 139.675 279.624 134.769C279.512 133.82 279.044 132.949 278.314 132.332C277.59 131.719 276.662 131.401 275.714 131.439ZM254.917 164.224C253.915 164.256 252.967 164.683 252.281 165.411C251.595 166.14 251.226 167.111 251.257 168.111C251.856 202.262 246.529 236.259 235.512 268.597C235.189 269.545 235.256 270.582 235.7 271.48C236.143 272.378 236.925 273.064 237.875 273.386C238.825 273.708 239.864 273.641 240.764 273.198C241.664 272.756 242.351 271.975 242.673 271.027C253.972 237.866 259.435 203.003 258.819 167.982C258.818 167.478 258.714 166.979 258.516 166.515C258.318 166.05 258.028 165.631 257.664 165.28C257.3 164.93 256.87 164.656 256.398 164.475C255.926 164.293 255.423 164.208 254.917 164.224ZM166.428 169.409C165.494 169.444 164.605 169.824 163.935 170.475C163.264 171.126 162.859 172.002 162.798 172.933C159.402 216.075 145.629 257.762 122.649 294.46C122.119 295.311 121.95 296.337 122.179 297.312C122.407 298.287 123.014 299.132 123.867 299.66C124.719 300.189 125.747 300.358 126.724 300.13C127.701 299.902 128.548 299.296 129.077 298.445C152.695 260.721 166.847 217.868 170.331 173.522C170.379 172.988 170.313 172.45 170.138 171.944C169.962 171.438 169.68 170.975 169.311 170.585C168.941 170.196 168.494 169.89 167.997 169.687C167.5 169.484 166.965 169.389 166.428 169.409ZM211.357 175.069C210.861 175.067 210.368 175.163 209.909 175.35C209.449 175.538 209.031 175.814 208.679 176.163C208.326 176.512 208.046 176.927 207.854 177.384C207.663 177.841 207.563 178.332 207.561 178.827C206.806 218.331 197.987 257.266 181.644 293.253C181.412 293.708 181.274 294.204 181.24 294.714C181.206 295.223 181.275 295.734 181.444 296.215C181.613 296.697 181.878 297.139 182.224 297.515C182.569 297.892 182.987 298.194 183.453 298.405C183.919 298.615 184.423 298.729 184.934 298.74C185.445 298.751 185.953 298.658 186.427 298.467C186.902 298.276 187.332 297.991 187.693 297.629C188.053 297.267 188.337 296.836 188.526 296.362C205.297 259.446 214.347 219.504 215.123 178.978C215.142 178.473 215.058 177.969 214.877 177.496C214.696 177.023 214.422 176.592 214.07 176.227C213.719 175.862 213.298 175.572 212.832 175.373C212.366 175.174 211.864 175.071 211.357 175.069ZM69.0309 185.891C68.0954 185.935 67.2093 186.323 66.5442 186.981C65.8792 187.639 65.4826 188.52 65.4311 189.453C64.7152 200.069 61.8299 210.427 56.9528 219.888C52.0756 229.35 45.3098 237.715 37.0718 244.47C36.6481 244.77 36.291 245.154 36.0225 245.597C35.7541 246.041 35.5802 246.535 35.5116 247.049C35.443 247.563 35.4812 248.085 35.6238 248.584C35.7665 249.082 36.0105 249.546 36.3406 249.946C36.6708 250.346 37.08 250.674 37.5428 250.91C38.0056 251.145 38.512 251.283 39.0304 251.314C39.5489 251.345 40.0683 251.27 40.5562 251.092C41.0441 250.915 41.4901 250.638 41.8664 250.281C50.9002 242.878 58.3206 233.709 63.6711 223.338C69.0216 212.967 72.1891 201.612 72.9785 189.974C73.0233 189.439 72.953 188.9 72.7724 188.394C72.5919 187.888 72.3051 187.427 71.9315 187.04C71.5578 186.654 71.1057 186.351 70.6055 186.153C70.1053 185.955 69.5685 185.866 69.0309 185.891ZM110.545 185.943C110.538 185.944 110.531 185.947 110.526 185.952C110.521 185.956 110.515 185.959 110.508 185.96C109.644 186.016 108.825 186.366 108.189 186.952C107.55 187.54 107.133 188.33 107.01 189.189C102.128 220.112 89.6545 249.35 70.7022 274.295C70.4023 274.69 70.1833 275.14 70.0576 275.62C69.932 276.099 69.9022 276.598 69.9699 277.089C70.0377 277.58 70.2017 278.053 70.4526 278.481C70.7034 278.908 71.0362 279.283 71.432 279.582C71.8277 279.881 72.2787 280.1 72.7591 280.225C73.2395 280.35 73.74 280.38 74.2319 280.313C74.7238 280.245 75.1976 280.081 75.6261 279.831C76.0547 279.581 76.4296 279.248 76.7295 278.854C96.4365 252.918 109.406 222.519 114.482 190.366C114.581 189.805 114.551 189.229 114.395 188.681C114.239 188.132 113.961 187.626 113.581 187.201C113.201 186.775 112.73 186.441 112.202 186.223C111.678 186.007 111.111 185.911 110.545 185.943ZM228.055 229.474C227.184 229.489 226.345 229.804 225.679 230.365C225.014 230.926 224.563 231.699 224.402 232.553C220.843 250.323 215.437 267.674 208.272 284.325C208.049 284.784 207.922 285.283 207.898 285.793C207.875 286.302 207.954 286.811 208.133 287.288C208.312 287.766 208.586 288.203 208.938 288.572C209.291 288.941 209.715 289.235 210.184 289.436C210.654 289.637 211.159 289.741 211.67 289.742C212.181 289.743 212.687 289.64 213.157 289.44C213.627 289.24 214.052 288.948 214.405 288.58C214.759 288.211 215.034 287.776 215.214 287.299C222.59 270.168 228.156 252.316 231.821 234.033C231.94 233.477 231.931 232.901 231.795 232.349C231.66 231.796 231.401 231.282 231.038 230.844C230.675 230.405 230.218 230.055 229.7 229.817C229.182 229.58 228.625 229.463 228.055 229.474ZM177.742 240.312C176.936 240.335 176.158 240.615 175.523 241.11C174.887 241.606 174.428 242.291 174.21 243.066C168.755 261.711 161.422 279.757 152.324 296.928C152.092 297.367 151.948 297.847 151.902 298.341C151.855 298.835 151.907 299.333 152.053 299.807C152.199 300.281 152.438 300.722 152.755 301.104C153.072 301.486 153.462 301.802 153.901 302.034C154.34 302.266 154.821 302.409 155.316 302.455C155.811 302.502 156.311 302.451 156.786 302.304C157.261 302.158 157.702 301.92 158.085 301.604C158.468 301.287 158.785 300.899 159.017 300.46C168.349 282.839 175.869 264.32 181.463 245.187C181.638 244.614 181.674 244.008 181.569 243.419C181.463 242.829 181.218 242.274 180.855 241.797C180.491 241.321 180.019 240.938 179.478 240.679C178.937 240.421 178.342 240.295 177.742 240.312ZM114.436 251.323C113.76 251.382 113.113 251.623 112.562 252.019C112.011 252.414 111.577 252.951 111.305 253.572C106.155 264.847 100.058 275.668 93.0796 285.917C92.7745 286.326 92.5554 286.791 92.4354 287.286C92.3155 287.781 92.2972 288.296 92.3816 288.798C92.4661 289.3 92.6516 289.78 92.9269 290.209C93.2022 290.638 93.5617 291.007 93.9837 291.293C94.4056 291.58 94.8813 291.778 95.3821 291.876C95.8829 291.974 96.3984 291.97 96.8976 291.864C97.3968 291.758 97.8694 291.552 98.2867 291.259C98.7041 290.966 99.0577 290.592 99.3263 290.159C106.548 279.555 112.857 268.361 118.187 256.696C118.455 256.125 118.575 255.497 118.537 254.868C118.499 254.239 118.304 253.63 117.969 253.096C117.635 252.561 117.171 252.119 116.622 251.809C116.072 251.5 115.453 251.332 114.822 251.323C114.693 251.316 114.565 251.316 114.436 251.323Z" fill="url(#paint0_linear_1767_10507)" fill-opacity="0.7"/>
<defs>
<linearGradient id="paint0_linear_1767_10507" x1="151.31" y1="0.524918" x2="151.31" y2="302.472" gradientUnits="userSpaceOnUse">
<stop stop-color="white" stop-opacity="0"/>
<stop offset="0.046875" stop-color="#82E5BA" stop-opacity="0"/>
<stop offset="0.265625" stop-color="#00C972" stop-opacity="0.11"/>
<stop offset="0.536458" stop-color="#00C972" stop-opacity="0.22"/>
<stop offset="0.791667" stop-color="#00C972" stop-opacity="0"/>
</linearGradient>
</defs>
</svg>
