<svg width="105" height="105" viewBox="0 0 105 105" fill="none" xmlns="http://www.w3.org/2000/svg">
<g clip-path="url(#clip0_1767_9918)">
<mask id="mask0_1767_9918" style="mask-type:alpha" maskUnits="userSpaceOnUse" x="0" y="0" width="105" height="105">
<rect x="0.311035" y="0.5" width="104" height="104" fill="url(#paint0_radial_1767_9918)"/>
</mask>
<g mask="url(#mask0_1767_9918)">
<rect x="10.3461" y="10.5351" width="13.9883" height="13.9883" stroke="#00A88F" stroke-width="0.608187"/>
<rect x="24.3344" y="10.5351" width="13.9883" height="13.9883" stroke="#00A88F" stroke-width="0.608187"/>
<rect x="38.3226" y="10.5351" width="13.9883" height="13.9883" stroke="#00A88F" stroke-width="0.608187"/>
<rect x="52.3109" y="10.5351" width="13.9883" height="13.9883" stroke="#00A88F" stroke-width="0.608187"/>
<rect x="66.2992" y="10.5351" width="13.9883" height="13.9883" stroke="#00A88F" stroke-width="0.608187"/>
<rect x="80.2875" y="10.5351" width="13.9883" height="13.9883" stroke="#00A88F" stroke-width="0.608187"/>
<rect x="10.3461" y="24.5235" width="13.9883" height="13.9883" stroke="#00A88F" stroke-width="0.608187"/>
<rect x="24.3344" y="24.5235" width="13.9883" height="13.9883" stroke="#00A88F" stroke-width="0.608187"/>
<rect x="38.3226" y="24.5235" width="13.9883" height="13.9883" stroke="#00A88F" stroke-width="0.608187"/>
<rect x="52.3109" y="24.5235" width="13.9883" height="13.9883" stroke="#00A88F" stroke-width="0.608187"/>
<rect x="66.2992" y="24.5235" width="13.9883" height="13.9883" stroke="#00A88F" stroke-width="0.608187"/>
<rect x="80.2875" y="24.5235" width="13.9883" height="13.9883" fill="#00A88F" fill-opacity="0.2" stroke="#00A88F" stroke-width="0.608187"/>
<rect x="10.3461" y="38.5117" width="13.9883" height="13.9883" stroke="#00A88F" stroke-width="0.608187"/>
<rect x="24.3344" y="38.5116" width="13.9883" height="13.9883" stroke="#00A88F" stroke-width="0.608187"/>
<rect x="38.3226" y="38.5116" width="13.9883" height="13.9883" stroke="#00A88F" stroke-width="0.608187"/>
<rect x="52.3109" y="38.5116" width="13.9883" height="13.9883" fill="url(#paint1_linear_1767_9918)" fill-opacity="0.2" stroke="#00A88F" stroke-width="0.608187"/>
<rect x="66.2992" y="38.5116" width="13.9883" height="13.9883" stroke="#00A88F" stroke-width="0.608187"/>
<rect x="80.2875" y="38.5116" width="13.9883" height="13.9883" stroke="#00A88F" stroke-width="0.608187"/>
<rect x="10.3461" y="52.5" width="13.9883" height="13.9883" stroke="#00A88F" stroke-width="0.608187"/>
<rect x="24.3344" y="52.5" width="13.9883" height="13.9883" stroke="#00A88F" stroke-width="0.608187"/>
<rect x="38.3226" y="52.5" width="13.9883" height="13.9883" stroke="#00A88F" stroke-width="0.608187"/>
<rect x="52.3109" y="52.5" width="13.9883" height="13.9883" stroke="#00A88F" stroke-width="0.608187"/>
<rect x="66.2992" y="52.5" width="13.9883" height="13.9883" stroke="#00A88F" stroke-width="0.608187"/>
<rect x="80.2875" y="52.5" width="13.9883" height="13.9883" stroke="#00A88F" stroke-width="0.608187"/>
<rect x="10.3461" y="66.4883" width="13.9883" height="13.9883" stroke="#00A88F" stroke-width="0.608187"/>
<rect x="24.3344" y="66.4883" width="13.9883" height="13.9883" stroke="#00A88F" stroke-width="0.608187"/>
<rect x="38.3226" y="66.4883" width="13.9883" height="13.9883" stroke="#00A88F" stroke-width="0.608187"/>
<rect x="52.3109" y="66.4883" width="13.9883" height="13.9883" stroke="#00A88F" stroke-width="0.608187"/>
<rect x="66.2992" y="66.4883" width="13.9883" height="13.9883" stroke="#00A88F" stroke-width="0.608187"/>
<rect x="80.2875" y="66.4883" width="13.9883" height="13.9883" stroke="#00A88F" stroke-width="0.608187"/>
<rect x="10.3461" y="80.4766" width="13.9883" height="13.9883" stroke="#00A88F" stroke-width="0.608187"/>
<rect x="24.3344" y="80.4766" width="13.9883" height="13.9883" stroke="#00A88F" stroke-width="0.608187"/>
<rect x="38.3226" y="80.4766" width="13.9883" height="13.9883" stroke="#00A88F" stroke-width="0.608187"/>
<rect x="52.3109" y="80.4766" width="13.9883" height="13.9883" stroke="#00A88F" stroke-width="0.608187"/>
<rect x="66.2992" y="80.4766" width="13.9883" height="13.9883" stroke="#00A88F" stroke-width="0.608187"/>
<rect x="80.2875" y="80.4766" width="13.9883" height="13.9883" stroke="#00A88F" stroke-width="0.608187"/>
</g>
</g>
<g filter="url(#filter0_d_1767_9918)">
<path d="M46.7129 35.5H39.8141C38.6204 35.5015 37.4756 35.9763 36.6316 36.8205C35.7873 37.6645 35.3124 38.8089 35.311 40.003V46.9016C35.3125 48.0954 35.7873 49.2398 36.6316 50.0841C37.4756 50.9281 38.6204 51.4033 39.8141 51.4047H46.7129C47.9066 51.4032 49.0514 50.928 49.8954 50.0841C50.7397 49.2398 51.2146 48.0954 51.216 46.9016V40.003C51.2145 38.8089 50.7397 37.6645 49.8954 36.8205C49.0514 35.9762 47.9066 35.5014 46.7129 35.5ZM48.7597 46.9015C48.7597 47.4442 48.5441 47.9647 48.1603 48.3489C47.7765 48.7327 47.2557 48.9483 46.7128 48.9483H39.8141C39.2713 48.9483 38.7505 48.7327 38.3667 48.3489C37.9829 47.9647 37.7672 47.4442 37.7672 46.9015V40.0028C37.7672 39.4597 37.9829 38.9392 38.3667 38.5554C38.7505 38.1716 39.2713 37.956 39.8141 37.956H46.7128C47.2556 37.956 47.7765 38.1716 48.1603 38.5554C48.5441 38.9392 48.7597 39.4597 48.7597 40.0028V46.9015ZM46.7129 53.5953H39.8141C38.6204 53.5968 37.4756 54.0719 36.6316 54.9159C35.7873 55.7602 35.3124 56.9046 35.311 58.0984V64.997C35.3125 66.1911 35.7873 67.3355 36.6316 68.1795C37.4756 69.0238 38.6204 69.4986 39.8141 69.5H46.7129C47.9066 69.4985 49.0514 69.0237 49.8954 68.1795C50.7397 67.3355 51.2146 66.1911 51.216 64.997V58.0984C51.2145 56.9046 50.7397 55.7602 49.8954 54.9159C49.0514 54.0719 47.9066 53.5967 46.7129 53.5953ZM48.7597 64.9968C48.7597 65.5399 48.5441 66.0604 48.1603 66.4442C47.7765 66.828 47.2557 67.0436 46.7128 67.0436H39.8141C39.2713 67.0436 38.7505 66.828 38.3667 66.4442C37.9829 66.0604 37.7672 65.5399 37.7672 64.9968V58.0982C37.7672 57.5554 37.9829 57.0349 38.3667 56.6507C38.7505 56.267 39.2713 56.0513 39.8141 56.0513H46.7128C47.2556 56.0513 47.7765 56.267 48.1603 56.6507C48.5441 57.0349 48.7597 57.5554 48.7597 58.0982V64.9968ZM64.8072 53.5953H57.91C56.7162 53.5968 55.5714 54.0716 54.7274 54.9155C53.8831 55.7598 53.4083 56.9046 53.4068 58.0984V64.997C53.4083 66.1911 53.8831 67.3355 54.7274 68.1798C55.5714 69.0241 56.7162 69.499 57.91 69.5H64.8079C66.0021 69.4985 67.1465 69.0237 67.9905 68.1795C68.8348 67.3355 69.3096 66.1911 69.311 64.997V58.0984C69.3096 56.9046 68.8348 55.7602 67.9905 54.9159C67.1465 54.0719 66.0021 53.5967 64.8079 53.5953H64.8072ZM66.854 64.9968C66.854 65.5399 66.6384 66.0604 66.2546 66.4442C65.8708 66.828 65.35 67.0436 64.8072 67.0436H57.9099C57.3672 67.0436 56.8467 66.828 56.4629 66.4442C56.0787 66.0604 55.8631 65.5399 55.8631 64.9968V58.0982C55.8631 57.5554 56.0787 57.0349 56.4629 56.6507C56.8467 56.267 57.3671 56.0513 57.9099 56.0513H64.8079C65.3511 56.0513 65.8715 56.267 66.2554 56.6507C66.6392 57.0349 66.8548 57.5554 66.8548 58.0982L66.854 64.9968ZM54.8891 49.118L55.6015 45.4337L61.0706 39.9647L65.0006 43.8946L59.5315 49.3556L55.8471 50.076C55.5807 50.1268 55.3062 50.0424 55.1143 49.8505C54.9224 49.659 54.8379 49.3845 54.8891 49.118ZM66.7361 42.1588L62.8062 38.2289L63.887 37.148H63.8866C64.194 36.8406 64.6107 36.6678 65.0453 36.6678C65.4799 36.6678 65.8966 36.8407 66.204 37.148L67.817 38.761H67.8166C68.1244 39.068 68.2969 39.4847 68.2969 39.9193C68.2969 40.3539 68.1244 40.7709 67.8166 41.078L66.7361 42.1588Z" fill="url(#paint2_linear_1767_9918)"/>
</g>
<defs>
<filter id="filter0_d_1767_9918" x="32.8783" y="34.2836" width="38.8655" height="38.8655" filterUnits="userSpaceOnUse" color-interpolation-filters="sRGB">
<feFlood flood-opacity="0" result="BackgroundImageFix"/>
<feColorMatrix in="SourceAlpha" type="matrix" values="0 0 0 0 0 0 0 0 0 0 0 0 0 0 0 0 0 0 127 0" result="hardAlpha"/>
<feOffset dy="1.21637"/>
<feGaussianBlur stdDeviation="1.21637"/>
<feComposite in2="hardAlpha" operator="out"/>
<feColorMatrix type="matrix" values="0 0 0 0 0 0 0 0 0 0.4 0 0 0 0 0.340476 0 0 0 0.2 0"/>
<feBlend mode="normal" in2="BackgroundImageFix" result="effect1_dropShadow_1767_9918"/>
<feBlend mode="normal" in="SourceGraphic" in2="effect1_dropShadow_1767_9918" result="shape"/>
</filter>
<radialGradient id="paint0_radial_1767_9918" cx="0" cy="0" r="1" gradientUnits="userSpaceOnUse" gradientTransform="translate(52.311 52.5) rotate(90.3769) scale(46.2232)">
<stop stop-color="#D9D9D9"/>
<stop offset="1" stop-color="#D9D9D9" stop-opacity="0"/>
</radialGradient>
<linearGradient id="paint1_linear_1767_9918" x1="59.3051" y1="38.2075" x2="59.3051" y2="52.804" gradientUnits="userSpaceOnUse">
<stop stop-color="#00A88F"/>
<stop offset="1" stop-color="#00A88F" stop-opacity="0"/>
</linearGradient>
<linearGradient id="paint2_linear_1767_9918" x1="53.244" y1="35.5" x2="55.6585" y2="83.5558" gradientUnits="userSpaceOnUse">
<stop stop-color="#00A88F"/>
<stop offset="1" stop-color="#006B5A"/>
</linearGradient>
<clipPath id="clip0_1767_9918">
<rect width="104" height="104" fill="white" transform="translate(0.311035 0.5)"/>
</clipPath>
</defs>
</svg>
