<svg width="105" height="105" viewBox="0 0 105 105" fill="none" xmlns="http://www.w3.org/2000/svg">
<g clip-path="url(#clip0_1767_10023)">
<mask id="mask0_1767_10023" style="mask-type:alpha" maskUnits="userSpaceOnUse" x="0" y="0" width="105" height="105">
<rect x="0.311035" y="0.5" width="104" height="104" fill="url(#paint0_radial_1767_10023)"/>
</mask>
<g mask="url(#mask0_1767_10023)">
<rect x="10.3461" y="10.5351" width="13.9883" height="13.9883" stroke="#00A88F" stroke-width="0.608187"/>
<rect x="24.3344" y="10.5351" width="13.9883" height="13.9883" stroke="#00A88F" stroke-width="0.608187"/>
<rect x="38.3226" y="10.5351" width="13.9883" height="13.9883" stroke="#00A88F" stroke-width="0.608187"/>
<rect x="52.3109" y="10.5351" width="13.9883" height="13.9883" stroke="#00A88F" stroke-width="0.608187"/>
<rect x="66.2992" y="10.5351" width="13.9883" height="13.9883" stroke="#00A88F" stroke-width="0.608187"/>
<rect x="80.2875" y="10.5351" width="13.9883" height="13.9883" stroke="#00A88F" stroke-width="0.608187"/>
<rect x="10.3461" y="24.5235" width="13.9883" height="13.9883" fill="#00A88F" fill-opacity="0.2" stroke="#00A88F" stroke-width="0.608187"/>
<rect x="24.3344" y="24.5235" width="13.9883" height="13.9883" stroke="#00A88F" stroke-width="0.608187"/>
<rect x="38.3226" y="24.5235" width="13.9883" height="13.9883" stroke="#00A88F" stroke-width="0.608187"/>
<rect x="52.3109" y="24.5235" width="13.9883" height="13.9883" stroke="#00A88F" stroke-width="0.608187"/>
<rect x="66.2992" y="24.5235" width="13.9883" height="13.9883" stroke="#00A88F" stroke-width="0.608187"/>
<rect x="80.2875" y="24.5235" width="13.9883" height="13.9883" fill="#00A88F" fill-opacity="0.2" stroke="#00A88F" stroke-width="0.608187"/>
<rect x="10.3461" y="38.5117" width="13.9883" height="13.9883" stroke="#00A88F" stroke-width="0.608187"/>
<rect x="24.3344" y="38.5116" width="13.9883" height="13.9883" stroke="#00A88F" stroke-width="0.608187"/>
<rect x="38.3226" y="38.5116" width="13.9883" height="13.9883" stroke="#00A88F" stroke-width="0.608187"/>
<rect x="52.3109" y="38.5116" width="13.9883" height="13.9883" stroke="#00A88F" stroke-width="0.608187"/>
<rect x="66.2992" y="38.5116" width="13.9883" height="13.9883" stroke="#00A88F" stroke-width="0.608187"/>
<rect x="80.2875" y="38.5116" width="13.9883" height="13.9883" stroke="#00A88F" stroke-width="0.608187"/>
<rect x="10.3461" y="52.5" width="13.9883" height="13.9883" stroke="#00A88F" stroke-width="0.608187"/>
<rect x="24.3344" y="52.5" width="13.9883" height="13.9883" stroke="#00A88F" stroke-width="0.608187"/>
<rect x="38.3226" y="52.5" width="13.9883" height="13.9883" stroke="#00A88F" stroke-width="0.608187"/>
<rect x="52.3109" y="52.5" width="13.9883" height="13.9883" stroke="#00A88F" stroke-width="0.608187"/>
<rect x="66.2992" y="52.5" width="13.9883" height="13.9883" stroke="#00A88F" stroke-width="0.608187"/>
<rect x="80.2875" y="52.5" width="13.9883" height="13.9883" stroke="#00A88F" stroke-width="0.608187"/>
<rect x="10.3461" y="66.4883" width="13.9883" height="13.9883" stroke="#00A88F" stroke-width="0.608187"/>
<rect x="24.3344" y="66.4883" width="13.9883" height="13.9883" stroke="#00A88F" stroke-width="0.608187"/>
<rect x="38.3226" y="66.4883" width="13.9883" height="13.9883" fill="#00A88F" fill-opacity="0.2" stroke="#00A88F" stroke-width="0.608187"/>
<rect x="52.3109" y="66.4883" width="13.9883" height="13.9883" stroke="#00A88F" stroke-width="0.608187"/>
<rect x="66.2992" y="66.4883" width="13.9883" height="13.9883" stroke="#00A88F" stroke-width="0.608187"/>
<rect x="80.2875" y="66.4883" width="13.9883" height="13.9883" stroke="#00A88F" stroke-width="0.608187"/>
<rect x="10.3461" y="80.4766" width="13.9883" height="13.9883" stroke="#00A88F" stroke-width="0.608187"/>
<rect x="24.3344" y="80.4766" width="13.9883" height="13.9883" stroke="#00A88F" stroke-width="0.608187"/>
<rect x="38.3226" y="80.4766" width="13.9883" height="13.9883" stroke="#00A88F" stroke-width="0.608187"/>
<rect x="52.3109" y="80.4766" width="13.9883" height="13.9883" stroke="#00A88F" stroke-width="0.608187"/>
<rect x="66.2992" y="80.4766" width="13.9883" height="13.9883" stroke="#00A88F" stroke-width="0.608187"/>
<rect x="80.2875" y="80.4766" width="13.9883" height="13.9883" stroke="#00A88F" stroke-width="0.608187"/>
</g>
</g>
<path d="M48.3981 37.5C46.253 37.5 44.4851 39.1942 44.4851 41.25V41.5C44.4851 42.0523 44.0374 42.5 43.4851 42.5H37.9633C35.8182 42.5 34.0503 44.1943 34.0503 46.2501V56.2502C34.0503 58.306 35.8182 60.0002 37.9633 60.0002H38.2677C38.82 60.0002 39.2677 60.4479 39.2677 61.0002V66.2503C39.2677 66.5817 39.4054 66.8996 39.65 67.1339C39.8945 67.3683 40.2262 67.4997 40.572 67.5C40.9179 67.5 41.2498 67.3683 41.4944 67.1339L48.6481 60.2782C48.8343 60.0998 49.0821 60.0002 49.34 60.0002H56.2242C57.0896 60.0002 57.8872 59.7211 58.533 59.2546C59.0125 58.9082 59.6975 58.8467 60.1246 59.256L63.1278 62.134C63.1279 62.1341 63.128 62.1341 63.1281 62.134C63.1282 62.1339 63.1283 62.1339 63.1284 62.134C63.3729 62.3683 63.7045 62.4997 64.0503 62.4997C64.3962 62.4997 64.7278 62.368 64.9724 62.1336C65.2169 61.8992 65.3543 61.5814 65.3546 61.2502V56.0002C65.3546 55.4479 65.8023 55.0002 66.3546 55.0002H66.659C68.8045 55.0002 70.572 53.3059 70.572 51.2501V41.25C70.572 39.1942 68.8045 37.5 66.659 37.5L48.3981 37.5ZM48.3981 40H66.659C67.4041 40 67.9634 40.536 67.9634 41.25V51.2501C67.9634 51.9641 67.4041 52.5001 66.659 52.5001H64.0503C63.7044 52.5001 63.3725 52.6318 63.1279 52.8662C62.8834 53.1006 62.746 53.4184 62.746 53.7502V55.8891C62.746 56.7698 61.6899 57.2205 61.054 56.6111L57.1466 52.8662C56.902 52.6318 56.5701 52.5001 56.2242 52.5001H48.3981C47.6531 52.5001 47.0938 51.9641 47.0938 51.2501V41.25C47.0938 40.536 47.6531 40 48.3981 40Z" fill="url(#paint1_linear_1767_10023)"/>
<path d="M53.617 46.2512C53.617 46.5827 53.4796 46.9005 53.2347 47.1349C52.9902 47.3695 52.6585 47.5012 52.3126 47.5012C51.9665 47.5012 51.6349 47.3695 51.3903 47.1349C51.1457 46.9005 51.0083 46.5827 51.0083 46.2512C51.0083 45.9195 51.1457 45.6017 51.3903 45.3673C51.6349 45.1329 51.9665 45.0012 52.3126 45.0012C52.6585 45.0012 52.9902 45.1329 53.2347 45.3673C53.4796 45.6017 53.617 45.9195 53.617 46.2512Z" fill="url(#paint2_linear_1767_10023)"/>
<path d="M64.0516 46.2512C64.0516 46.5827 63.9141 46.9005 63.6693 47.1349C63.4247 47.3695 63.0931 47.5012 62.7472 47.5012C62.401 47.5012 62.0694 47.3695 61.8249 47.1349C61.5803 46.9005 61.4429 46.5827 61.4429 46.2512C61.4429 45.9195 61.5803 45.6017 61.8249 45.3673C62.0694 45.1329 62.401 45.0012 62.7472 45.0012C63.0931 45.0012 63.4247 45.1329 63.6693 45.3673C63.9141 45.6017 64.0516 45.9195 64.0516 46.2512Z" fill="url(#paint3_linear_1767_10023)"/>
<path d="M58.8343 46.2512C58.8343 46.5827 58.6968 46.9005 58.452 47.1349C58.2074 47.3695 57.8758 47.5012 57.5299 47.5012C57.1838 47.5012 56.8521 47.3695 56.6076 47.1349C56.363 46.9005 56.2256 46.5827 56.2256 46.2512C56.2256 45.9195 56.363 45.6017 56.6076 45.3673C56.8521 45.1329 57.1838 45.0012 57.5299 45.0012C57.8758 45.0012 58.2074 45.1329 58.452 45.3673C58.6969 45.6017 58.8343 45.9195 58.8343 46.2512Z" fill="url(#paint4_linear_1767_10023)"/>
<defs>
<radialGradient id="paint0_radial_1767_10023" cx="0" cy="0" r="1" gradientUnits="userSpaceOnUse" gradientTransform="translate(52.311 52.5) rotate(90.3769) scale(46.2232)">
<stop stop-color="#D9D9D9"/>
<stop offset="1" stop-color="#D9D9D9" stop-opacity="0"/>
</radialGradient>
<linearGradient id="paint1_linear_1767_10023" x1="53.3133" y1="37.5" x2="55.0648" y2="79.9369" gradientUnits="userSpaceOnUse">
<stop stop-color="#00A88F"/>
<stop offset="1" stop-color="#006B5A"/>
</linearGradient>
<linearGradient id="paint2_linear_1767_10023" x1="52.3842" y1="45.0012" x2="52.5544" y2="48.5355" gradientUnits="userSpaceOnUse">
<stop stop-color="#00A88F"/>
<stop offset="1" stop-color="#006B5A"/>
</linearGradient>
<linearGradient id="paint3_linear_1767_10023" x1="62.8188" y1="45.0012" x2="62.989" y2="48.5355" gradientUnits="userSpaceOnUse">
<stop stop-color="#00A88F"/>
<stop offset="1" stop-color="#006B5A"/>
</linearGradient>
<linearGradient id="paint4_linear_1767_10023" x1="57.6015" y1="45.0012" x2="57.7717" y2="48.5355" gradientUnits="userSpaceOnUse">
<stop stop-color="#00A88F"/>
<stop offset="1" stop-color="#006B5A"/>
</linearGradient>
<clipPath id="clip0_1767_10023">
<rect width="104" height="104" fill="white" transform="translate(0.311035 0.5)"/>
</clipPath>
</defs>
</svg>
