<svg width="105" height="105" viewBox="0 0 105 105" fill="none" xmlns="http://www.w3.org/2000/svg">
<g clip-path="url(#clip0_1767_9968)">
<mask id="mask0_1767_9968" style="mask-type:alpha" maskUnits="userSpaceOnUse" x="0" y="0" width="105" height="105">
<rect x="0.311035" y="0.5" width="104" height="104" fill="url(#paint0_radial_1767_9968)"/>
</mask>
<g mask="url(#mask0_1767_9968)">
<rect x="10.3461" y="10.5351" width="13.9883" height="13.9883" stroke="#00A88F" stroke-width="0.608187"/>
<rect x="24.3344" y="10.5351" width="13.9883" height="13.9883" stroke="#00A88F" stroke-width="0.608187"/>
<rect x="38.3226" y="10.5351" width="13.9883" height="13.9883" stroke="#00A88F" stroke-width="0.608187"/>
<rect x="52.3109" y="10.5351" width="13.9883" height="13.9883" stroke="#00A88F" stroke-width="0.608187"/>
<rect x="66.2992" y="10.5351" width="13.9883" height="13.9883" stroke="#00A88F" stroke-width="0.608187"/>
<rect x="80.2875" y="10.5351" width="13.9883" height="13.9883" stroke="#00A88F" stroke-width="0.608187"/>
<rect x="10.3461" y="24.5235" width="13.9883" height="13.9883" fill="#00A88F" fill-opacity="0.2" stroke="#00A88F" stroke-width="0.608187"/>
<rect x="24.3344" y="24.5235" width="13.9883" height="13.9883" stroke="#00A88F" stroke-width="0.608187"/>
<rect x="38.3226" y="24.5235" width="13.9883" height="13.9883" stroke="#00A88F" stroke-width="0.608187"/>
<rect x="52.3109" y="24.5235" width="13.9883" height="13.9883" stroke="#00A88F" stroke-width="0.608187"/>
<rect x="66.2992" y="24.5235" width="13.9883" height="13.9883" stroke="#00A88F" stroke-width="0.608187"/>
<rect x="80.2875" y="24.5235" width="13.9883" height="13.9883" fill="#00A88F" fill-opacity="0.2" stroke="#00A88F" stroke-width="0.608187"/>
<rect x="10.3461" y="38.5117" width="13.9883" height="13.9883" stroke="#00A88F" stroke-width="0.608187"/>
<rect x="24.3344" y="38.5116" width="13.9883" height="13.9883" stroke="#00A88F" stroke-width="0.608187"/>
<rect x="38.3226" y="38.5116" width="13.9883" height="13.9883" stroke="#00A88F" stroke-width="0.608187"/>
<rect x="52.3109" y="38.5116" width="13.9883" height="13.9883" stroke="#00A88F" stroke-width="0.608187"/>
<rect x="66.2992" y="38.5116" width="13.9883" height="13.9883" stroke="#00A88F" stroke-width="0.608187"/>
<rect x="80.2875" y="38.5116" width="13.9883" height="13.9883" stroke="#00A88F" stroke-width="0.608187"/>
<rect x="10.3461" y="52.5" width="13.9883" height="13.9883" stroke="#00A88F" stroke-width="0.608187"/>
<rect x="24.3344" y="52.5" width="13.9883" height="13.9883" stroke="#00A88F" stroke-width="0.608187"/>
<rect x="38.3226" y="52.5" width="13.9883" height="13.9883" stroke="#00A88F" stroke-width="0.608187"/>
<rect x="52.3109" y="52.5" width="13.9883" height="13.9883" stroke="#00A88F" stroke-width="0.608187"/>
<rect x="66.2992" y="52.5" width="13.9883" height="13.9883" stroke="#00A88F" stroke-width="0.608187"/>
<rect x="80.2875" y="52.5" width="13.9883" height="13.9883" stroke="#00A88F" stroke-width="0.608187"/>
<rect x="10.3461" y="66.4883" width="13.9883" height="13.9883" stroke="#00A88F" stroke-width="0.608187"/>
<rect x="24.3344" y="66.4883" width="13.9883" height="13.9883" stroke="#00A88F" stroke-width="0.608187"/>
<rect x="38.3226" y="66.4883" width="13.9883" height="13.9883" fill="#00A88F" fill-opacity="0.2" stroke="#00A88F" stroke-width="0.608187"/>
<rect x="52.3109" y="66.4883" width="13.9883" height="13.9883" stroke="#00A88F" stroke-width="0.608187"/>
<rect x="66.2992" y="66.4883" width="13.9883" height="13.9883" stroke="#00A88F" stroke-width="0.608187"/>
<rect x="80.2875" y="66.4883" width="13.9883" height="13.9883" stroke="#00A88F" stroke-width="0.608187"/>
<rect x="10.3461" y="80.4766" width="13.9883" height="13.9883" stroke="#00A88F" stroke-width="0.608187"/>
<rect x="24.3344" y="80.4766" width="13.9883" height="13.9883" stroke="#00A88F" stroke-width="0.608187"/>
<rect x="38.3226" y="80.4766" width="13.9883" height="13.9883" stroke="#00A88F" stroke-width="0.608187"/>
<rect x="52.3109" y="80.4766" width="13.9883" height="13.9883" stroke="#00A88F" stroke-width="0.608187"/>
<rect x="66.2992" y="80.4766" width="13.9883" height="13.9883" stroke="#00A88F" stroke-width="0.608187"/>
<rect x="80.2875" y="80.4766" width="13.9883" height="13.9883" stroke="#00A88F" stroke-width="0.608187"/>
</g>
</g>
<g filter="url(#filter0_d_1767_9968)">
<path d="M61.7308 69.4997C62.1398 69.4934 62.5462 69.437 62.9408 69.3315V68.785C62.9385 68.5556 63.073 68.3459 63.2845 68.249C63.4821 68.1614 63.6716 68.0575 63.8514 67.9383C64.0511 67.8126 64.3055 67.8068 64.511 67.9231L65.009 68.1966C65.6208 67.6271 66.0606 66.9024 66.2795 66.1024L65.4163 65.6283C65.5048 65.1917 65.5048 64.7419 65.4163 64.3052L66.2793 63.8312V63.8314C66.0614 63.0313 65.6225 62.3059 65.0113 61.7358L64.511 62.0105C64.3055 62.1271 64.0511 62.1213 63.8512 61.9953C63.6716 61.8762 63.482 61.7724 63.2845 61.6847C63.0728 61.5878 62.9385 61.378 62.9408 61.1486V60.5999C62.1084 60.377 61.2307 60.3778 60.3988 60.6022V61.1486C60.4011 61.378 60.2665 61.5878 60.0551 61.6846C59.8575 61.7724 59.668 61.8762 59.4881 61.9953C59.2885 62.121 59.0341 62.1271 58.8286 62.0105L58.3306 61.737C57.7188 62.3065 57.279 63.0312 57.0601 63.8312L57.9233 64.3053C57.8348 64.7419 57.8348 65.1917 57.9233 65.6284L57.0603 66.1022H57.0601C57.2782 66.9023 57.717 67.6277 58.328 68.1979L58.8286 67.9231C59.0341 67.8065 59.2885 67.8126 59.4882 67.9383C59.668 68.0574 59.8576 68.1612 60.0551 68.249C60.2666 68.3459 60.4011 68.5556 60.3988 68.785V69.3337C60.833 69.4488 61.2811 69.5047 61.7308 69.4997ZM59.9412 64.9668C59.9412 64.516 60.1233 64.0834 60.4474 63.7647C60.7715 63.446 61.2114 63.2668 61.6698 63.2668C62.1281 63.2668 62.5681 63.4459 62.8921 63.7647C63.2162 64.0834 63.3984 64.5161 63.3984 64.9668C63.3984 65.4176 63.2162 65.8502 62.8921 66.1689C62.568 66.4876 62.1281 66.6668 61.6698 66.6668C61.2114 66.6668 60.7715 66.4877 60.4474 66.1689C60.1234 65.8502 59.9412 65.4176 59.9412 64.9668Z" fill="url(#paint1_linear_1767_9968)"/>
</g>
<g filter="url(#filter1_d_1767_9968)">
<path d="M47.2646 47.4001H49.5695V51.3668H47.2646V47.4001Z" fill="url(#paint2_linear_1767_9968)"/>
</g>
<g filter="url(#filter2_d_1767_9968)">
<path d="M51.2979 43.4333H53.6027V51.3668H51.2979V43.4333Z" fill="url(#paint3_linear_1767_9968)"/>
</g>
<g filter="url(#filter3_d_1767_9968)">
<path d="M55.3315 45.7H57.6364V51.3668H55.3315V45.7Z" fill="url(#paint4_linear_1767_9968)"/>
</g>
<g filter="url(#filter4_d_1767_9968)">
<path d="M36.3164 41.7333C36.8358 41.7331 37.3276 41.5031 37.6559 41.1074C37.9841 40.7115 38.114 40.1916 38.0098 39.6913L40.318 38.432C40.6038 38.7009 40.9753 38.8646 41.3696 38.8949C41.7637 38.9253 42.1568 38.8205 42.4814 38.5984L45.2302 40.6524C43.3378 42.4556 42.2149 44.9004 42.0901 47.4887C41.9653 50.077 42.848 52.6153 44.5585 54.5867C46.2689 56.5582 48.6789 57.8145 51.2979 58.1004V61.0002H50.6064C50.3518 61.0002 50.1455 61.2031 50.1455 61.4536V68.367C50.1455 68.5173 50.2062 68.6615 50.3142 68.7677C50.4223 68.874 50.5689 68.9337 50.7217 68.9337H54.1789C54.3317 68.9337 54.4784 68.874 54.5864 68.7677C54.6944 68.6615 54.7552 68.5173 54.7552 68.367V61.4536C54.7552 61.3334 54.7065 61.2181 54.6201 61.1331C54.5337 61.0481 54.4164 61.0002 54.2942 61.0002H53.6027V58.1004C56.9296 57.7411 59.8744 55.8218 61.507 52.9484C63.14 50.0751 63.2588 46.6027 61.8263 43.6278L65.2105 41.3591C65.4899 41.5827 65.8346 41.713 66.1944 41.7312C66.554 41.7494 66.9105 41.6548 67.2118 41.4605L69.4382 42.7848L70.0347 41.8152L67.9158 40.5548L67.9161 40.5551C67.9745 40.3871 68.0056 40.211 68.0079 40.0334C68.0107 39.5484 67.8032 39.0855 67.4371 38.761C67.0711 38.4361 66.5813 38.2805 66.0912 38.3334C65.6012 38.386 65.1572 38.642 64.8712 39.0369C64.5854 39.4318 64.4843 39.9282 64.5939 40.4008L61.2745 42.626V42.6262C59.7395 40.1604 57.2101 38.4538 54.3191 37.9332C51.4275 37.4123 48.4472 38.1265 46.1231 39.897L43.1528 37.6776H43.1531C43.2025 37.5231 43.2287 37.3622 43.231 37.2C43.231 36.5926 42.9015 36.0315 42.3667 35.7277C41.8319 35.4241 41.1729 35.4241 40.6381 35.7277C40.1033 36.0315 39.7738 36.5926 39.7738 37.2C39.7763 37.2741 39.7838 37.3477 39.7964 37.4209L37.4064 38.725C37.1006 38.4735 36.7152 38.3351 36.3165 38.3334C35.6989 38.3334 35.1283 38.6574 34.8194 39.1834C34.5107 39.7093 34.5107 40.3575 34.8194 40.8834C35.1283 41.4093 35.6989 41.7334 36.3165 41.7334L36.3164 41.7333ZM52.4503 40.0333C54.5897 40.0333 56.6417 40.8691 58.1545 42.3569C59.6674 43.8447 60.5173 45.8627 60.5173 47.9667C60.5173 50.0707 59.6674 52.0887 58.1545 53.5765C56.6417 55.0643 54.5897 55.9002 52.4503 55.9002C50.3109 55.9002 48.2589 55.0643 46.7461 53.5765C45.2333 52.0887 44.3834 50.0707 44.3834 47.9667C44.3834 45.8627 45.2333 43.8447 46.7461 42.3569C48.2589 40.8691 50.3109 40.0333 52.4503 40.0333Z" fill="url(#paint5_linear_1767_9968)"/>
</g>
<defs>
<filter id="filter0_d_1767_9968" x="52.8694" y="58.338" width="17.6005" height="17.448" filterUnits="userSpaceOnUse" color-interpolation-filters="sRGB">
<feFlood flood-opacity="0" result="BackgroundImageFix"/>
<feColorMatrix in="SourceAlpha" type="matrix" values="0 0 0 0 0 0 0 0 0 0 0 0 0 0 0 0 0 0 127 0" result="hardAlpha"/>
<feOffset dy="2.09532"/>
<feGaussianBlur stdDeviation="2.09532"/>
<feComposite in2="hardAlpha" operator="out"/>
<feColorMatrix type="matrix" values="0 0 0 0 0 0 0 0 0 0.4 0 0 0 0 0.340476 0 0 0 0.2 0"/>
<feBlend mode="normal" in2="BackgroundImageFix" result="effect1_dropShadow_1767_9968"/>
<feBlend mode="normal" in="SourceGraphic" in2="effect1_dropShadow_1767_9968" result="shape"/>
</filter>
<filter id="filter1_d_1767_9968" x="43.074" y="45.3048" width="10.686" height="12.348" filterUnits="userSpaceOnUse" color-interpolation-filters="sRGB">
<feFlood flood-opacity="0" result="BackgroundImageFix"/>
<feColorMatrix in="SourceAlpha" type="matrix" values="0 0 0 0 0 0 0 0 0 0 0 0 0 0 0 0 0 0 127 0" result="hardAlpha"/>
<feOffset dy="2.09532"/>
<feGaussianBlur stdDeviation="2.09532"/>
<feComposite in2="hardAlpha" operator="out"/>
<feColorMatrix type="matrix" values="0 0 0 0 0 0 0 0 0 0.4 0 0 0 0 0.340476 0 0 0 0.2 0"/>
<feBlend mode="normal" in2="BackgroundImageFix" result="effect1_dropShadow_1767_9968"/>
<feBlend mode="normal" in="SourceGraphic" in2="effect1_dropShadow_1767_9968" result="shape"/>
</filter>
<filter id="filter2_d_1767_9968" x="47.1072" y="41.338" width="10.686" height="16.3147" filterUnits="userSpaceOnUse" color-interpolation-filters="sRGB">
<feFlood flood-opacity="0" result="BackgroundImageFix"/>
<feColorMatrix in="SourceAlpha" type="matrix" values="0 0 0 0 0 0 0 0 0 0 0 0 0 0 0 0 0 0 127 0" result="hardAlpha"/>
<feOffset dy="2.09532"/>
<feGaussianBlur stdDeviation="2.09532"/>
<feComposite in2="hardAlpha" operator="out"/>
<feColorMatrix type="matrix" values="0 0 0 0 0 0 0 0 0 0.4 0 0 0 0 0.340476 0 0 0 0.2 0"/>
<feBlend mode="normal" in2="BackgroundImageFix" result="effect1_dropShadow_1767_9968"/>
<feBlend mode="normal" in="SourceGraphic" in2="effect1_dropShadow_1767_9968" result="shape"/>
</filter>
<filter id="filter3_d_1767_9968" x="51.1409" y="43.6047" width="10.686" height="14.048" filterUnits="userSpaceOnUse" color-interpolation-filters="sRGB">
<feFlood flood-opacity="0" result="BackgroundImageFix"/>
<feColorMatrix in="SourceAlpha" type="matrix" values="0 0 0 0 0 0 0 0 0 0 0 0 0 0 0 0 0 0 127 0" result="hardAlpha"/>
<feOffset dy="2.09532"/>
<feGaussianBlur stdDeviation="2.09532"/>
<feComposite in2="hardAlpha" operator="out"/>
<feColorMatrix type="matrix" values="0 0 0 0 0 0 0 0 0 0.4 0 0 0 0 0.340476 0 0 0 0.2 0"/>
<feBlend mode="normal" in2="BackgroundImageFix" result="effect1_dropShadow_1767_9968"/>
<feBlend mode="normal" in="SourceGraphic" in2="effect1_dropShadow_1767_9968" result="shape"/>
</filter>
<filter id="filter4_d_1767_9968" x="30.3973" y="33.4047" width="43.828" height="41.8149" filterUnits="userSpaceOnUse" color-interpolation-filters="sRGB">
<feFlood flood-opacity="0" result="BackgroundImageFix"/>
<feColorMatrix in="SourceAlpha" type="matrix" values="0 0 0 0 0 0 0 0 0 0 0 0 0 0 0 0 0 0 127 0" result="hardAlpha"/>
<feOffset dy="2.09532"/>
<feGaussianBlur stdDeviation="2.09532"/>
<feComposite in2="hardAlpha" operator="out"/>
<feColorMatrix type="matrix" values="0 0 0 0 0 0 0 0 0 0.4 0 0 0 0 0.340476 0 0 0 0.2 0"/>
<feBlend mode="normal" in2="BackgroundImageFix" result="effect1_dropShadow_1767_9968"/>
<feBlend mode="normal" in="SourceGraphic" in2="effect1_dropShadow_1767_9968" result="shape"/>
</filter>
<radialGradient id="paint0_radial_1767_9968" cx="0" cy="0" r="1" gradientUnits="userSpaceOnUse" gradientTransform="translate(52.311 52.5) rotate(90.3769) scale(46.2232)">
<stop stop-color="#D9D9D9"/>
<stop offset="1" stop-color="#D9D9D9" stop-opacity="0"/>
</radialGradient>
<linearGradient id="paint1_linear_1767_9968" x1="61.9228" y1="60.4333" x2="62.556" y2="73.2493" gradientUnits="userSpaceOnUse">
<stop stop-color="#00A88F"/>
<stop offset="1" stop-color="#006B5A"/>
</linearGradient>
<linearGradient id="paint2_linear_1767_9968" x1="48.4803" y1="47.4001" x2="48.9628" y2="52.9791" gradientUnits="userSpaceOnUse">
<stop stop-color="#00A88F"/>
<stop offset="1" stop-color="#006B5A"/>
</linearGradient>
<linearGradient id="paint3_linear_1767_9968" x1="52.5135" y1="43.4333" x2="54.4012" y2="54.3483" gradientUnits="userSpaceOnUse">
<stop stop-color="#00A88F"/>
<stop offset="1" stop-color="#006B5A"/>
</linearGradient>
<linearGradient id="paint4_linear_1767_9968" x1="56.5472" y1="45.7" x2="57.5242" y2="53.6089" gradientUnits="userSpaceOnUse">
<stop stop-color="#00A88F"/>
<stop offset="1" stop-color="#006B5A"/>
</linearGradient>
<linearGradient id="paint5_linear_1767_9968" x1="53.2839" y1="35.5" x2="55.5241" y2="82.7685" gradientUnits="userSpaceOnUse">
<stop stop-color="#00A88F"/>
<stop offset="1" stop-color="#006B5A"/>
</linearGradient>
<clipPath id="clip0_1767_9968">
<rect width="104" height="104" fill="white" transform="translate(0.311035 0.5)"/>
</clipPath>
</defs>
</svg>
